<svg width="20" height="20" viewBox="0 0 20 20" fill="none" xmlns="http://www.w3.org/2000/svg">
<path d="M15.4167 13.3333C17.0275 13.3333 18.3334 10.9082 18.3334 7.91667C18.3334 4.92512 17.0275 2.5 15.4167 2.5M15.4167 13.3333C13.8059 13.3333 12.5 10.9082 12.5 7.91667C12.5 4.92512 13.8059 2.5 15.4167 2.5M15.4167 13.3333L4.53631 11.3551C3.7634 11.2146 3.37694 11.1443 3.06446 10.9908C2.42874 10.6785 1.95532 10.1113 1.76181 9.42994C1.66669 9.09504 1.66669 8.70225 1.66669 7.91667C1.66669 7.13108 1.66669 6.73829 1.76181 6.40339C1.95532 5.72207 2.42874 5.15481 3.06446 4.84254C3.37694 4.68904 3.7634 4.61878 4.53631 4.47825L15.4167 2.5M4.16669 11.6667L4.4949 16.2617C4.52607 16.698 4.54165 16.9162 4.63658 17.0816C4.72016 17.2272 4.84576 17.3441 4.99693 17.4171C5.16862 17.5 5.38736 17.5 5.82485 17.5H7.31018C7.81031 17.5 8.06037 17.5 8.24545 17.4003C8.40807 17.3126 8.53697 17.1734 8.61188 17.0046C8.69713 16.8124 8.67795 16.5631 8.63959 16.0644L8.33335 12.0833" stroke="#252A30" stroke-width="1.5" stroke-linecap="round" stroke-linejoin="round"/>
</svg>
